<!-- by TradingView --><svg xmlns="http://www.w3.org/2000/svg" width="56" height="56" viewBox="0 0 56 56"><path fill="#592C81" d="M0 0h56v56H0z"/><path d="M14 21h-3v13h3V21ZM12.5 19a1.5 1.5 0 1 0 0-3 1.5 1.5 0 0 0 0 3Z" fill="#F0F3FA"/><path fill-rule="evenodd" d="M26 21h3v13h-3.06v-1.16a6.13 6.13 0 0 1-3.57 1.15C18.85 33.99 16 31 16 27.32A6.22 6.22 0 0 1 22.37 21c1.32 0 2.61.42 3.63 1.15V21Zm-3.63 3a3.56 3.56 0 0 1 3.57 3.5c0 1.98-1.69 3.5-3.57 3.5A3.39 3.39 0 0 1 19 27.5c0-1.98 1.48-3.5 3.37-3.5ZM45 21.03v3.29h-1.02A5.45 5.45 0 0 1 45 27.5a6.37 6.37 0 0 1-4.44 6.04A4.91 4.91 0 0 1 38.6 43a4.95 4.95 0 0 1-2.09-9.46A6.29 6.29 0 0 1 32 27.5c0-3.62 2.91-6.5 6.5-6.5 2.17 0 4.33.03 6.5.03ZM38.6 36c1.1 0 2 .91 2 2.03 0 1.12-.9 2.03-2 2.03-1.12 0-2.02-.9-2.02-2.03 0-1.12.9-2.03 2.01-2.03Zm-.1-12c1.93 0 3.5 1.55 3.5 3.5a3.49 3.49 0 1 1-7 0c0-1.95 1.57-3.5 3.5-3.5Z" fill="#F0F3FA"/></svg>