<!-- by TradingView --><svg xmlns="http://www.w3.org/2000/svg" width="56" height="56" viewBox="0 0 56 56"><path fill="#F0F3FA" d="M0 0h56v56H0z"/><path d="m28.67 37.87.11-.02c.24-.02.24-.03.24-.58v-1.8c0-.52 0-.54-.23-.58l-.12-.02v-.12h2.26c.04.26.05.53.05.8l-.17.02c-.1-.47-.13-.64-.77-.64h-.39v1.37h.38c.39 0 .48 0 .52-.2l.03-.18h.12v.99h-.12l-.03-.19c-.04-.2-.16-.2-.51-.2h-.39v.76c0 .52 0 .54.24.58l.11.01V38h-1.33v-.13ZM31.33 37.87l.1-.01c.17-.02.2-.07.2-.33v-1.16c0-.18 0-.4-.15-.4l-.16.03v-.15c.29-.1.59-.15.9-.17v1.85c0 .26.02.31.2.33l.1.01V38h-1.2v-.13Zm.22-2.95a.34.34 0 0 1 .2-.31.33.33 0 0 1 .14-.03.34.34 0 0 1 .33.35.35.35 0 0 1-.33.34.33.33 0 0 1-.32-.21.34.34 0 0 1-.02-.14ZM33.24 36.37c0-.17 0-.4-.15-.4l-.15.03v-.14c.28-.1.58-.16.88-.18v.29c.2-.2.49-.3.77-.3.44 0 .74.22.74.89v.97c0 .26.02.32.2.33l.1.01V38h-1.19v-.13h.1c.18-.02.2-.08.2-.34v-.7c0-.39 0-.86-.5-.86a.54.54 0 0 0-.41.19v1.37c0 .26.02.32.2.33l.1.01V38h-1.18v-.13h.1c.17-.02.2-.08.2-.34v-1.16ZM38.21 37.88a.82.82 0 0 1-.42.12c-.31 0-.4-.12-.47-.25-.2.16-.43.25-.68.25-.38 0-.64-.22-.64-.53 0-.62.86-.8 1.27-.9v-.12c0-.29-.08-.55-.43-.55-.38 0-.52.34-.58.49h-.05a.73.73 0 0 1-.14-.25c.22-.24.56-.53 1.06-.53.61 0 .72.32.72.89v.6c0 .36 0 .72.31.72h.04l.01.06Zm-.95-1.08h-.05c-.28 0-.59.14-.59.5 0 .24.14.42.36.42.11 0 .22-.04.3-.12l-.02-.27v-.53ZM38.79 36.37c0-.17 0-.4-.15-.4-.05 0-.1.02-.16.04v-.15c.29-.1.58-.16.88-.18v.29c.21-.2.5-.3.78-.29.44 0 .74.22.74.88v.98c0 .26.02.31.2.33h.1V38h-1.2v-.12l.1-.01c.19-.02.2-.07.2-.33v-.7c0-.4 0-.87-.5-.87a.55.55 0 0 0-.4.2v1.37c0 .26.02.31.2.33h.1V38h-1.19v-.12l.1-.01c.17-.02.2-.07.2-.33v-1.17ZM43.45 37.75a1.4 1.4 0 0 1-.88.25c-.53 0-1.14-.37-1.14-1.08 0-.92.73-1.3 1.28-1.3.35 0 .54.06.67.15a.73.73 0 0 1-.2.4h-.04c-.1-.11-.28-.31-.56-.31-.31 0-.53.3-.53.8 0 .73.42 1.06.91 1.06.15 0 .3-.03.45-.08l.04.11ZM43.73 37.87l.1-.01c.18-.02.2-.07.2-.33v-1.16c0-.18 0-.4-.15-.4l-.15.03v-.15c.28-.1.58-.15.89-.17v1.85c0 .26.02.31.2.33l.1.01V38h-1.2v-.13Zm.22-2.95a.34.34 0 0 1 .21-.31.33.33 0 0 1 .13-.03.34.34 0 0 1 .36.35.35.35 0 0 1-.36.34.33.33 0 0 1-.32-.21.34.34 0 0 1-.02-.14ZM47.54 37.88a.81.81 0 0 1-.42.12c-.32 0-.4-.12-.48-.25-.19.16-.43.25-.68.25-.38 0-.64-.22-.64-.53 0-.62.86-.8 1.27-.9v-.12c0-.29-.08-.55-.43-.55-.37 0-.51.34-.58.49h-.05a.73.73 0 0 1-.13-.25c.22-.24.56-.53 1.05-.53.62 0 .73.32.73.89v.6c0 .36 0 .72.31.72h.04v.06Zm-.95-1.08h-.06c-.28 0-.58.14-.58.5 0 .24.14.42.36.42.1 0 .21-.04.3-.12l-.02-.27v-.53ZM47.8 37.87l.1-.01c.18-.02.2-.07.2-.33v-2.22c0-.44 0-.63-.16-.63l-.14.01v-.13c.3-.07.6-.1.9-.11v3.08c0 .26.02.31.2.33l.1.01V38h-1.2v-.13Z" fill="#58595B"/><path d="M13.87 19H8v.47l.61.07c.89.12.89.24.89 2.18v7.58c0 1.92 0 2.04-.89 2.16l-.5.06H8V32h6v-.47l-.62-.07c-.88-.12-.88-.24-.88-2.16v-7.6c0-1.92 0-2.04.88-2.16l.5-.06H14V19h-.13ZM31.07 19h-.03c-.34 0-.68.04-1 .12l-.1.02-.7 10.84c-.1 1.28-.34 1.34-.85 1.43l-.53.1-.1.02v.46h4.67v-.46l-.78-.11c-.77-.15-.95-.18-.95-.95v-.42l.24-6.47 4.5 8.42.08-.01c.27-.04.54-.1.8-.2l.05-.01 4.13-8.19.26 6.46v.32c0 .88-.18.92-.95 1.05l-.67.1h-.1V32h6.01v-.46l-.71-.11c-.56-.08-.8-.18-.88-1.61l-.63-10.8h-.11c-.35-.02-.7.02-1.05.11l-.05.01-5.05 9.31L31.15 19h-.08ZM27.91 20.62l.41-.23s-.12-.27-.6-.93c-.65-.91-1.54-.39-3.25.85a6 6 0 0 0-3.78-1.17c-2.58 0-5.12 1.29-5.12 4.04a3.57 3.57 0 0 0 1.69 3.09c-1.09.73-2.37 1.41-2.37 3.11s1.28 2.88 3.58 2.88v.05c-1.81.48-3.58 1.58-3.58 3.28 0 1.7 1.57 2.53 2.18 2.8.6.24 1.64.61 3.33.61 3.4 0 6.37-2.12 6.74-5.1.03-.36 0-.77-.19-1.12l-.1-.17c-.83-1.26-2.2-1.89-4.17-1.95-2.6-.1-4.26.04-4.86-.76 1.07.41 2.52.17 4.94.17 2.46.01 3.66.76 4.38 2.6-.27-2.64-2.3-3.52-4.68-3.52-2.78 0-5.88.78-5.88-1.05 0-.87 1.07-1.47 1.2-1.54.11.07 1.3.64 2.92.64 2.6 0 5.15-1.29 5.15-4.04 0-.86-.3-1.7-.86-2.36 1.2-.69 2.08-.9 2.92-.17v-.01Zm-5.81 11.6c1.81-.01 3.14.45 3.14 2.64s-2.3 3.72-4.6 3.72-3.38-.92-3.38-3.11c0-2.2 2.07-3.17 2.07-3.17l2.77-.07Zm-1.4-5.46c-1.87 0-2.1-1.66-2.1-3.6 0-1.95.23-3.6 2.1-3.6 1.88 0 2.12 1.65 2.12 3.6 0 1.94-.24 3.6-2.12 3.6" fill="#018AAF"/></svg>