<!-- by TradingView --><svg xmlns="http://www.w3.org/2000/svg" width="56" height="56" viewBox="0 0 56 56"><path fill="#1B2934" d="M0 0h56v56H0z"/><path d="M46 20h-3.78a31.62 31.62 0 0 0 1.03-8l-2.36.95a32.86 32.86 0 0 1-25.74 31.13l-.3.92c6.27-1.29 11.54-3.55 16.13-8h3.24l3.63-5.99 3.6 5.99H46l-6.01-8.65L46 20ZM15 33.33 12 34v-9.5H9.31L9 23h9v1.5h-3v8.83Zm10.1-4.6L27 23h3v11h-3v-7.13l-2.56 7.02L21 26.7V34h-2V23h3.46l2.63 5.72ZM34.97 23l1.87 2.5c-.34.83-.77 1.64-1.27 2.38L31.83 23h3.15Z" fill="#fff"/></svg>